<svg width="129" height="115" xmlns="http://www.w3.org/2000/svg" xmlns:xlink="http://www.w3.org/1999/xlink" xml:space="preserve" overflow="hidden"><defs><clipPath id="clip0"><rect x="0" y="0" width="129" height="115"/></clipPath></defs><g clip-path="url(#clip0)"><path d="M55.614 69.742C58.1902 64.7832 71.7054 52.7567 82.6121 50.4198 87.5014 49.3722 89.2934 52.0751 89.5199 56.0106 111.582 58.5601 132.183 77.1415 136.91 99.6849 138.188 105.783 138.183 111.591 137.08 116.871L142.463 116.785C139.885 123.843 131.307 138.609 111.113 142.843 110.344 143.005 109.578 143.133 108.812 143.228 106.885 143.511 104.886 143.658 102.824 143.658 78.9069 143.658 55.3916 123.971 50.3004 99.6849 47.8753 88.1173 50.0679 77.5926 55.614 69.742Z" fill="#9F163D" transform="matrix(1.00077 0 0 1 -39.0193 -38.9839)"/><path d="M41.616 0C41.616 24.0606 22.9839 43.5656-2.21007e-06 43.5656-22.9839 43.5656-41.616 24.0606-41.616-3.36212e-06-41.616-24.0606-22.9839-43.5656-5.13723e-06-43.5656 22.9839-43.5656 41.616-24.0606 41.616 0Z" fill="#EB323A" transform="matrix(1.02253 0 0.209801 1 62.851 53.7797)"/><path d="M32.6852 0C32.6852 18.8887 18.0516 34.201-2.89777e-06 34.201-18.0516 34.201-32.6852 18.8887-32.6852-1.63404e-06-32.6852-18.8887-18.0516-34.201-4.44952e-06-34.201 18.0516-34.201 32.6852-18.8887 32.6852 0Z" fill="#FFFFFF" transform="matrix(1.02253 0 0.209801 1 63.7559 51.7439)"/><path d="M24.1926 0C24.1926 13.6479 13.3612 24.7118-1.82213e-06 24.7118-13.3612 24.7118-24.1926 13.6479-24.1926-1.19908e-06-24.1926-13.6479-13.3612-24.7118-1.85152e-06-24.7118 13.3612-24.7118 24.1926-13.6479 24.1926 0Z" fill="#EB323A" transform="matrix(1.02253 0 0.209801 1 64.6205 50.6471)"/><path d="M15.5023 0C15.5023 8.56167 8.56167 15.5023-1.46946e-07 15.5023-8.56168 15.5023-15.5023 8.56167-15.5023-1.46946e-07-15.5023-8.56168-8.56168-15.5023-1.68988e-06-15.5023 8.56167-15.5023 15.5023-8.56168 15.5023 0Z" fill="#FFFFFF" transform="matrix(1.02253 0 0.209801 1 66.1232 49.623)"/><path d="M7.65099 0C7.65099 4.22552 4.22552 7.65099-1.6164e-07 7.65099-4.22552 7.65099-7.65099 4.22552-7.65099-1.6164e-07-7.65099-4.22552-4.22552-7.65099-2.97565e-07-7.65099 4.22552-7.65099 7.65099-4.22552 7.65099 0Z" fill="#EB323A" transform="matrix(1.02253 0 0.209801 1 66.1242 49.6232)"/><path d="M215.77 118.075C215.77 118.618 216.211 119.059 216.754 119.059L224.234 119.059C224.778 119.059 225.218 118.618 225.218 118.075L225.218 82.1513 216.754 82.1513C216.211 82.1513 215.77 82.5918 215.77 83.1353L215.77 118.075Z" fill="#EB323A" transform="matrix(1.00077 0 0 1 -39.0193 -38.9839)"/><path d="M216.074 76.3059C216.981 77.2575 218.363 77.7332 220.221 77.7332 222.079 77.7332 223.438 77.2575 224.298 76.3059 225.159 75.3091 225.59 74.0856 225.59 72.6356 225.59 71.095 225.159 69.8488 224.298 68.8973 223.438 67.9457 222.079 67.4699 220.221 67.4699 218.363 67.4699 216.981 67.9457 216.074 68.8973 215.213 69.8488 214.783 71.095 214.783 72.6356 214.783 74.0856 215.213 75.3091 216.074 76.3059Z" fill="#EB323A" transform="matrix(1.00077 0 0 1 -39.0193 -38.9839)"/><path d="M200.877 101.794C197.977 103.154 194.443 103.833 190.274 103.833L182.798 103.833 182.798 118.075C182.798 118.618 182.357 119.059 181.814 119.059L174.13 119.059C173.586 119.059 173.146 118.618 173.146 118.075L173.146 70.0851C173.146 69.5417 173.586 69.1012 174.13 69.1012L181.814 69.1012C181.92 69.1012 182.023 69.118 182.118 69.1491 182.213 69.118 182.316 69.1012 182.422 69.1012L190.274 69.1012C194.443 69.1012 197.977 69.7809 200.877 71.1402 203.823 72.4997 206.066 74.4481 207.606 76.9856 209.147 79.4778 209.918 82.4458 209.918 85.8896L209.918 86.9771C209.918 90.4209 209.147 93.4116 207.606 95.9491 206.066 98.4411 203.823 100.389 200.877 101.794ZM195.984 78.6168C194.669 77.8466 193.038 77.4614 191.09 77.4614L182.798 77.4614 182.798 95.4733 191.09 95.4733C193.038 95.4733 194.669 95.0881 195.984 94.3178 197.343 93.5475 198.362 92.4826 199.042 91.1233 199.767 89.7638 200.13 88.2006 200.13 86.4333 200.13 84.6661 199.767 83.1028 199.042 81.7435 198.362 80.384 197.343 79.3419 195.984 78.6168Z" fill="#EB323A" fill-rule="evenodd" transform="matrix(1.00077 0 0 1 -39.0193 -38.9839)"/><path d="M233.692 119.059C233.148 119.059 232.708 118.618 232.708 118.075L232.708 83.1353C232.708 82.5918 233.148 82.1513 233.692 82.1513L239.2 82.1513C239.744 82.1513 240.184 82.5918 240.184 83.1353L240.184 91.2463C240.404 90.2997 240.675 89.4203 241 88.6084 241.997 86.0708 243.47 84.1677 245.418 82.8989 247.412 81.6302 249.881 80.9958 252.827 80.9958L253.235 80.9958C257.63 80.9958 260.961 82.4232 263.226 85.2778 265.492 88.0872 266.624 92.3013 266.624 97.9202L266.624 118.075C266.624 118.618 266.184 119.059 265.64 119.059L258.161 119.059C257.617 119.059 257.177 118.618 257.177 118.075L257.177 97.1045C257.177 94.8389 256.52 93.0037 255.205 91.599 253.937 90.1943 252.17 89.4919 249.904 89.4919 247.594 89.4919 245.712 90.217 244.263 91.667 242.858 93.0717 242.155 94.9749 242.155 97.3764L242.155 118.075C242.155 118.618 241.715 119.059 241.171 119.059L233.692 119.059Z" fill="#EB323A" transform="matrix(1.00077 0 0 1 -39.0193 -38.9839)"/><path d="M301.863 101.794C298.962 103.154 295.428 103.833 291.26 103.833L283.783 103.833 283.783 118.075C283.783 118.618 283.342 119.059 282.799 119.059L275.115 119.059C274.572 119.059 274.131 118.618 274.131 118.075L274.131 70.0851C274.131 69.5417 274.572 69.1012 275.115 69.1012L282.799 69.1012C282.905 69.1012 283.007 69.118 283.103 69.1491 283.199 69.118 283.301 69.1012 283.408 69.1012L291.26 69.1012C295.428 69.1012 298.962 69.7809 301.863 71.1402 304.808 72.4997 307.051 74.4481 308.591 76.9856 310.132 79.4778 310.902 82.4458 310.902 85.8896L310.902 86.9771C310.902 90.4209 310.132 93.4116 308.591 95.9491 307.051 98.4411 304.808 100.389 301.863 101.794ZM296.969 78.6168C295.655 77.8466 294.024 77.4614 292.075 77.4614L283.783 77.4614 283.783 95.4733 292.075 95.4733C294.024 95.4733 295.655 95.0881 296.969 94.3178 298.328 93.5475 299.348 92.4826 300.028 91.1233 300.752 89.7638 301.115 88.2006 301.115 86.4333 301.115 84.6661 300.752 83.1028 300.028 81.7435 299.348 80.384 298.328 79.3419 296.969 78.6168Z" fill="#EB323A" fill-rule="evenodd" transform="matrix(1.00077 0 0 1 -39.0193 -38.9839)"/><path d="M331.932 120.35C328.669 120.35 325.792 119.829 323.299 118.786 320.807 117.744 318.7 116.34 316.978 114.573 315.257 112.76 313.942 110.721 313.036 108.456 312.175 106.19 311.745 103.833 311.745 101.386L311.745 99.9594C311.745 97.4218 312.197 95.0201 313.104 92.7545 314.056 90.4435 315.392 88.4045 317.114 86.6373 318.881 84.8247 321.011 83.42 323.503 82.4232 325.995 81.381 328.805 80.8599 331.932 80.8599 335.058 80.8599 337.868 81.381 340.36 82.4232 342.852 83.42 344.959 84.8247 346.681 86.6373 348.448 88.4045 349.785 90.4435 350.691 92.7545 351.597 95.0201 352.051 97.4218 352.051 99.9594L352.051 101.386C352.051 103.833 351.597 106.19 350.691 108.456 349.83 110.721 348.539 112.76 346.817 114.573 345.095 116.34 342.987 117.744 340.496 118.786 338.004 119.829 335.149 120.35 331.932 120.35ZM331.932 112.262C334.243 112.262 336.191 111.763 337.777 110.766 339.362 109.724 340.564 108.342 341.38 106.62 342.195 104.853 342.603 102.859 342.603 100.639 342.603 98.3734 342.173 96.3796 341.312 94.6576 340.496 92.8904 339.272 91.5084 337.641 90.5115 336.055 89.4693 334.151 88.9482 331.932 88.9482 329.711 88.9482 327.785 89.4693 326.154 90.5115 324.569 91.5084 323.345 92.8904 322.484 94.6576 321.623 96.3796 321.193 98.3734 321.193 100.639 321.193 102.859 321.6 104.853 322.416 106.62 323.277 108.342 324.5 109.724 326.086 110.766 327.672 111.763 329.62 112.262 331.932 112.262Z" fill="#EB323A" fill-rule="evenodd" transform="matrix(1.00077 0 0 1 -39.0193 -38.9839)"/><path d="M358.691 118.075C358.691 118.618 359.132 119.059 359.675 119.059L367.155 119.059C367.7 119.059 368.139 118.618 368.139 118.075L368.139 82.1513 359.675 82.1513C359.132 82.1513 358.691 82.5918 358.691 83.1353L358.691 118.075Z" fill="#EB323A" transform="matrix(1.00077 0 0 1 -39.0193 -38.9839)"/><path d="M358.996 76.3059C359.903 77.2575 361.284 77.7332 363.142 77.7332 365.001 77.7332 366.359 77.2575 367.22 76.3059 368.081 75.3091 368.512 74.0856 368.512 72.6356 368.512 71.095 368.081 69.8488 367.22 68.8973 366.359 67.9457 365.001 67.4699 363.142 67.4699 361.284 67.4699 359.903 67.9457 358.996 68.8973 358.135 69.8488 357.704 71.095 357.704 72.6356 357.704 74.0856 358.135 75.3091 358.996 76.3059Z" fill="#EB323A" transform="matrix(1.00077 0 0 1 -39.0193 -38.9839)"/><path d="M376.613 119.059C376.07 119.059 375.629 118.618 375.629 118.075L375.629 83.1353C375.629 82.5918 376.07 82.1513 376.613 82.1513L382.122 82.1513C382.666 82.1513 383.106 82.5918 383.106 83.1353L383.106 91.2463C383.325 90.2996 383.597 89.4203 383.922 88.6084 384.919 86.0708 386.392 84.1677 388.34 82.8989 390.334 81.6302 392.803 80.9958 395.748 80.9958L396.157 80.9958C400.552 80.9958 403.882 82.4232 406.148 85.2778 408.414 88.0872 409.546 92.3013 409.546 97.9202L409.546 118.075C409.546 118.618 409.105 119.059 408.562 119.059L401.082 119.059C400.539 119.059 400.098 118.618 400.098 118.075L400.098 97.1045C400.098 94.8389 399.441 93.0037 398.128 91.599 396.858 90.1943 395.091 89.4919 392.826 89.4919 390.515 89.4919 388.634 90.217 387.184 91.667 385.78 93.0717 385.077 94.9749 385.077 97.3764L385.077 118.075C385.077 118.618 384.636 119.059 384.093 119.059L376.613 119.059Z" fill="#EB323A" transform="matrix(1.00077 0 0 1 -39.0193 -38.9839)"/><path d="M423.917 118.243C426.138 119.104 428.947 119.534 432.346 119.534L436.663 119.534C437.206 119.534 437.647 119.093 437.647 118.55L437.647 112.43C437.647 111.887 437.206 111.446 436.663 111.446L431.87 111.446C430.057 111.446 428.653 110.97 427.656 110.018 426.705 109.022 426.228 107.618 426.228 105.805L426.262 89.0842 436.663 89.0842C437.206 89.0842 437.647 88.6436 437.647 88.1002L437.647 83.1353C437.647 82.5918 437.206 82.1513 436.663 82.1513L426.276 82.1513 426.294 72.7379C426.295 72.1936 425.854 71.752 425.31 71.752L418.442 71.752C417.9 71.752 417.459 72.1913 417.458 72.7339L417.44 82.1513 412.531 82.1513C411.988 82.1513 411.547 82.5918 411.547 83.1353L411.547 88.1002C411.547 88.6436 411.988 89.0842 412.531 89.0842L417.425 89.0842 417.392 105.193C417.392 108.773 417.937 111.627 419.024 113.757 420.111 115.841 421.742 117.337 423.917 118.243Z" fill="#EB323A" transform="matrix(1.00077 0 0 1 -39.0193 -38.9839)"/></g></svg>